<?xml version="1.0" encoding="UTF-8" standalone="no"?>
<!-- Created with Inkscape (http://www.inkscape.org/) -->

<svg
   width="210mm"
   height="297mm"
   viewBox="0 0 210 297"
   version="1.1"
   id="svg1"
   inkscape:version="1.4 (e7c3feb1, 2024-10-09)"
   sodipodi:docname="magnifying.svg"
   xmlns:inkscape="http://www.inkscape.org/namespaces/inkscape"
   xmlns:sodipodi="http://sodipodi.sourceforge.net/DTD/sodipodi-0.dtd"
   xmlns="http://www.w3.org/2000/svg"
   xmlns:svg="http://www.w3.org/2000/svg">
  <sodipodi:namedview
     id="namedview1"
     pagecolor="#ffffff"
     bordercolor="#000000"
     borderopacity="0.25"
     inkscape:showpageshadow="2"
     inkscape:pageopacity="0.0"
     inkscape:pagecheckerboard="0"
     inkscape:deskcolor="#d1d1d1"
     inkscape:document-units="mm"
     inkscape:zoom="0.50085214"
     inkscape:cx="197.66313"
     inkscape:cy="606.96556"
     inkscape:window-width="1272"
     inkscape:window-height="763"
     inkscape:window-x="0"
     inkscape:window-y="37"
     inkscape:window-maximized="0"
     inkscape:current-layer="layer1" />
  <defs
     id="defs1" />
  <g
     inkscape:label="Capa 1"
     inkscape:groupmode="layer"
     id="layer1">
    <g
       id="g269"
       inkscape:label="magnifying"
       transform="matrix(1.282178,0,0,1.3099518,-123.83375,-868.7071)">
      <path
         id="path99"
         d="m 1086.2,2123.87 c 2.83,2.17 4.91,4.11 6.18,5.72 -1.71,0.65 -4.39,1.36 -8.21,1.9 0.79,-2.49 1.46,-5.03 2.03,-7.62"
         style="fill:#4460b6;fill-opacity:1;fill-rule:nonzero;stroke:none"
         transform="matrix(0.13333333,0,0,-0.13333333,0,1066.6667)" />
      <path
         id="path100"
         d="m 1002.95,2165.73 c -33.079,0 -59.989,-26.94 -59.989,-60.07 0,-9.34 2.152,-18.2 5.977,-26.1 15.656,1.14 35.464,4.25 58.242,10.36 22.77,6.11 41.47,13.32 55.59,20.17 -2.26,31.06 -28.21,55.64 -59.82,55.64"
         style="fill:#4460b6;fill-opacity:1;fill-rule:nonzero;stroke:none"
         transform="matrix(0.13333333,0,0,-0.13333333,0,1066.6667)" />
      <path
         id="path101"
         d="m 1362,1968.07 -3.76,11.91 -3.76,-11.91 c -1.24,-3.91 -4.3,-6.99 -8.21,-8.22 l -11.95,-3.79 11.93,-3.76 c 3.92,-1.24 6.99,-4.31 8.23,-8.23 l 3.76,-11.9 3.76,11.9 c 1.23,3.92 4.31,6.99 8.23,8.23 l 11.93,3.76 -11.94,3.79 c -3.92,1.23 -6.99,4.3 -8.22,8.22"
         style="fill:#4460b6;fill-opacity:1;fill-rule:nonzero;stroke:none"
         transform="matrix(0.13333333,0,0,-0.13333333,0,1066.6667)" />
      <path
         id="path102"
         d="m 968.676,2056.42 c 9.73,-6.81 21.551,-10.81 34.274,-10.81 23.94,0 44.61,14.09 54.25,34.42 -13.3,-5.4 -28.04,-10.32 -43.48,-14.46 -4.62,-1.24 -23.345,-6.07 -45.044,-9.15"
         style="fill:#4460b6;fill-opacity:1;fill-rule:nonzero;stroke:none"
         transform="matrix(0.13333333,0,0,-0.13333333,0,1066.6667)" />
      <path
         id="path103"
         d="m 1632.41,2221.76 c 16.13,0 29.25,13.12 29.25,29.25 0,16.17 -13.12,29.32 -29.25,29.32 -16.13,0 -29.25,-13.15 -29.25,-29.32 0,-16.13 13.12,-29.25 29.25,-29.25"
         style="fill:#4460b6;fill-opacity:1;fill-rule:nonzero;stroke:none"
         transform="matrix(0.13333333,0,0,-0.13333333,0,1066.6667)" />
      <path
         id="path104"
         d="m 1219.55,2598.96 3.75,-11.91 3.75,11.91 c 1.24,3.91 4.31,6.99 8.23,8.23 l 11.94,3.77 -11.95,3.78 c -3.92,1.23 -6.98,4.29 -8.22,8.23 l -3.75,11.89 -3.75,-11.91 c -1.24,-3.92 -4.31,-6.98 -8.24,-8.21 l -11.94,-3.78 11.94,-3.77 c 3.91,-1.24 7,-4.32 8.24,-8.23"
         style="fill:#4460b6;fill-opacity:1;fill-rule:nonzero;stroke:none"
         transform="matrix(0.13333333,0,0,-0.13333333,0,1066.6667)" />
      <path
         id="path105"
         d="m 1418.93,2355.54 h -109.34 c -6.94,0 -12.59,5.64 -12.59,12.6 0,6.97 5.65,12.61 12.59,12.61 h 109.34 c 6.95,0 12.6,-5.64 12.6,-12.61 0,-6.96 -5.65,-12.6 -12.6,-12.6 z m -27.34,-129.93 h -109.33 c -6.96,0 -12.61,5.63 -12.61,12.59 0,6.98 5.65,12.61 12.61,12.61 h 109.33 c 6.96,0 12.61,-5.63 12.61,-12.61 0,-6.96 -5.65,-12.59 -12.61,-12.59 z m -179.36,65 c -6.97,0 -12.61,5.64 -12.61,12.6 0,6.97 5.64,12.61 12.61,12.61 h 109.32 c 6.97,0 12.61,-5.64 12.61,-12.61 0,-6.96 -5.64,-12.6 -12.61,-12.6 z m 209.21,104.36 c -27.7,27.74 -64.52,43.01 -103.69,43.01 -39.17,0 -76.01,-15.27 -103.7,-43.01 -57.19,-57.22 -57.17,-150.32 0.03,-207.58 27.68,-27.72 64.5,-43 103.68,-43 39.16,0 75.98,15.28 103.68,43 57.19,57.27 57.2,150.38 0,207.58"
         style="fill:#4460b6;fill-opacity:1;fill-rule:nonzero;stroke:none"
         transform="matrix(0.13333333,0,0,-0.13333333,0,1066.6667)" />
      <path
         id="path106"
         d="m 913.539,2081.61 c 1.926,-0.76 4.691,-1.4 8.242,-1.85 -0.801,2.5 -1.472,5.03 -2.039,7.63 -3.062,-2.39 -5.039,-4.35 -6.203,-5.78"
         style="fill:#4460b6;fill-opacity:1;fill-rule:nonzero;stroke:none"
         transform="matrix(0.13333333,0,0,-0.13333333,0,1066.6667)" />
      <path
         id="path107"
         d="m 1439.27,2169.57 c -32.44,-32.5 -75.6,-50.39 -121.51,-50.39 -45.91,0 -89.07,17.89 -121.52,50.4 -67.02,67.07 -67.03,176.18 -0.02,243.22 32.45,32.49 75.62,50.38 121.53,50.38 45.92,0 89.08,-17.89 121.52,-50.39 67.02,-67.02 67.02,-176.13 0,-243.22 z m 28.49,-7.52 c 0.23,0.26 0.45,0.53 0.66,0.78 66.2,77.71 62.62,194.96 -10.76,268.44 -37.37,37.39 -87.05,57.99 -139.9,57.99 -52.85,0 -102.54,-20.6 -139.92,-58 -77.15,-77.25 -77.15,-202.91 0,-280.1 37.38,-37.42 87.07,-58.04 139.92,-58.04 43.97,0 85.76,14.29 120.08,40.64 0.08,0.07 0.14,0.15 0.22,0.2 3.28,2.51 6.37,5.06 9.34,7.62 0.85,0.74 1.68,1.49 2.52,2.24 0.4,0.36 0.8,0.71 1.19,1.08 0.98,0.9 1.96,1.8 2.92,2.72 0.97,0.92 1.92,1.84 2.85,2.78 0.25,0.25 0.51,0.49 0.75,0.73 1.32,1.3 2.59,2.65 3.88,4 0.74,0.77 1.45,1.56 2.18,2.35 0.51,0.56 1.02,1.12 1.53,1.68 0.86,0.96 1.7,1.92 2.54,2.89"
         style="fill:#4460b6;fill-opacity:1;fill-rule:nonzero;stroke:none"
         transform="matrix(0.13333333,0,0,-0.13333333,0,1066.6667)" />
      <path
         id="path108"
         d="m 1700.07,1908.55 c -3.25,-3.26 -3.25,-8.63 0.03,-11.93 1.59,-1.58 3.68,-2.46 5.92,-2.46 2.23,0 4.32,0.88 5.91,2.45 3.3,3.31 3.3,8.68 0.01,11.97 -1.55,1.56 -3.67,2.43 -5.92,2.43 -2.26,0 -4.37,-0.87 -5.95,-2.46"
         style="fill:#4460b6;fill-opacity:1;fill-rule:nonzero;stroke:none"
         transform="matrix(0.13333333,0,0,-0.13333333,0,1066.6667)" />
      <path
         id="path109"
         d="m 1545.39,2084.66 -59.6,59.67 c -0.5,-0.58 -1.01,-1.12 -1.52,-1.68 -0.66,-0.76 -1.35,-1.49 -2.02,-2.24 -0.77,-0.84 -1.54,-1.67 -2.32,-2.5 -1.46,-1.54 -2.93,-3.06 -4.44,-4.57 l -0.01,-0.01 c 0,0 0,-0.01 -0.01,-0.01 -0.04,-0.05 -0.08,-0.09 -0.12,-0.12 -1.38,-1.38 -2.78,-2.74 -4.18,-4.08 -0.87,-0.82 -1.76,-1.63 -2.65,-2.46 -0.9,-0.82 -1.81,-1.65 -2.72,-2.46 -0.45,-0.39 -0.86,-0.78 -1.31,-1.17 l 59.63,-59.67 9.45,9.45 11.82,11.85"
         style="fill:#4460b6;fill-opacity:1;fill-rule:nonzero;stroke:none"
         transform="matrix(0.13333333,0,0,-0.13333333,0,1066.6667)" />
      <path
         id="path110"
         d="m 1740.87,1915.11 -9.38,9.39 c 11.34,-13.21 10.78,-33.17 -1.7,-45.67 -6.33,-6.37 -14.78,-9.87 -23.77,-9.87 -8.25,0 -16.02,2.97 -22.15,8.38 l 9.68,-9.68 c 6.29,-6.3 14.69,-9.76 23.66,-9.76 8.97,0 17.37,3.46 23.66,9.76 6.3,6.3 9.77,14.72 9.77,23.73 0,9 -3.47,17.43 -9.77,23.72"
         style="fill:#4460b6;fill-opacity:1;fill-rule:nonzero;stroke:none"
         transform="matrix(0.13333333,0,0,-0.13333333,0,1066.6667)" />
      <path
         id="path111"
         d="m 1706.02,1936.22 c 8.1,0 15.76,-2.87 21.84,-8.09 l -151.61,151.75 -3.83,-3.84 c -0.1,-0.1 -0.18,-0.22 -0.28,-0.32 l -21.41,-21.41 -21.85,-21.87 152.04,-152.15 c -11.67,13.19 -11.27,33.45 1.31,46.09 6.38,6.35 14.81,9.84 23.79,9.84"
         style="fill:#4460b6;fill-opacity:1;fill-rule:nonzero;stroke:none"
         transform="matrix(0.13333333,0,0,-0.13333333,0,1066.6667)" />
    </g>
  </g>
</svg>
